<?xml version="1.0" encoding="UTF-8" standalone="no"?>
<!-- Generator: Adobe Illustrator 16.0.0, SVG Export Plug-In . SVG Version: 6.00 Build 0)  -->

<svg
   xmlns:dc="http://purl.org/dc/elements/1.1/"
   xmlns:cc="http://creativecommons.org/ns#"
   xmlns:rdf="http://www.w3.org/1999/02/22-rdf-syntax-ns#"
   xmlns:svg="http://www.w3.org/2000/svg"
   xmlns="http://www.w3.org/2000/svg"
   xmlns:sodipodi="http://sodipodi.sourceforge.net/DTD/sodipodi-0.dtd"
   xmlns:inkscape="http://www.inkscape.org/namespaces/inkscape"
   version="1.1"
   id="Capa_1"
   x="0px"
   y="0px"
   width="24.999998"
   height="25"
   viewBox="0 0 24.999999 25.000001"
   xml:space="preserve"
   sodipodi:docname="flag.svg"
   inkscape:version="0.92.2 (5c3e80d, 2017-08-06)"><metadata
     id="metadata63"><rdf:RDF><cc:Work
         rdf:about=""><dc:format>image/svg+xml</dc:format><dc:type
           rdf:resource="http://purl.org/dc/dcmitype/StillImage" /><dc:title /></cc:Work></rdf:RDF></metadata><defs
     id="defs61" /><sodipodi:namedview
     pagecolor="#ffffff"
     bordercolor="#666666"
     borderopacity="1"
     objecttolerance="10"
     gridtolerance="10"
     guidetolerance="10"
     inkscape:pageopacity="0"
     inkscape:pageshadow="2"
     inkscape:window-width="2719"
     inkscape:window-height="1598"
     id="namedview59"
     showgrid="false"
     inkscape:zoom="6.9665275"
     inkscape:cx="-96.270868"
     inkscape:cy="9.9651918"
     inkscape:window-x="604"
     inkscape:window-y="296"
     inkscape:window-maximized="0"
     inkscape:current-layer="Capa_1" /><g
     id="g26"
     transform="matrix(0.05225646,0,0,0.05507565,1.7517432e-5,-0.6743402)"><g
       id="g24"><path
         d="m 167.162,132.159 c -5.713,15.459 -11.426,30.918 -17.14,46.379 13.235,11.164 27.443,18.645 44.573,21.93 5.713,-15.459 11.426,-30.918 17.139,-46.375 -17.13,-3.3 -31.336,-10.76 -44.572,-21.934 z"
         id="path2"
         inkscape:connector-curvature="0" /><path
         d="m 370.448,152.5 c 5.239,-14.178 10.478,-28.352 15.717,-42.527 -17.443,-2.814 -34.473,-2.797 -52.072,-1.719 -5.238,14.176 -10.479,28.353 -15.717,42.527 17.601,-1.079 34.63,-1.093 52.072,1.719 z"
         id="path4"
         inkscape:connector-curvature="0" /><path
         d="m 117.168,267.438 c 13.231,11.17 27.444,18.641 44.572,21.932 5.239,-14.176 10.478,-28.352 15.717,-42.526 -17.131,-3.291 -31.337,-10.763 -44.573,-21.933 -5.239,14.175 -10.478,28.352 -15.716,42.527 z"
         id="path6"
         inkscape:connector-curvature="0" /><path
         d="m 365.026,309.708 c 5.238,-14.174 10.478,-28.35 15.717,-42.524 -13.237,-11.168 -27.441,-18.638 -44.572,-21.933 -5.239,14.177 -10.479,28.353 -15.718,42.527 17.13,3.289 31.339,10.762 44.573,21.93 z"
         id="path8"
         inkscape:connector-curvature="0" /><path
         d="m 213.814,291.089 c 18.209,-1.472 36.357,-3.56 54.567,-5.029 5.238,-14.176 10.478,-28.354 15.717,-42.529 -18.209,1.473 -36.357,3.562 -54.567,5.031 -5.239,14.173 -10.478,28.349 -15.717,42.527 z"
         id="path10"
         inkscape:connector-curvature="0" /><path
         d="m 353.311,198.875 c 17.129,3.293 31.336,10.762 44.57,21.932 5.716,-15.457 11.429,-30.918 17.141,-46.377 -13.238,-11.168 -27.442,-18.635 -44.573,-21.93 -5.713,15.459 -11.427,30.918 -17.138,46.375 z"
         id="path12"
         inkscape:connector-curvature="0" /><path
         d="m 194.596,200.468 c -5.712,15.457 -11.427,30.918 -17.139,46.375 17.442,2.813 34.475,2.797 52.073,1.719 5.714,-15.459 11.427,-30.918 17.14,-46.377 -17.601,1.08 -34.631,1.097 -52.074,-1.717 z"
         id="path14"
         inkscape:connector-curvature="0" /><path
         d="m 263.809,155.809 c 5.239,-14.176 10.479,-28.352 15.717,-42.525 -17.6,1.08 -34.632,1.096 -52.073,-1.717 -5.239,14.174 -10.478,28.35 -15.717,42.525 17.444,2.811 34.47,2.794 52.073,1.717 z"
         id="path16"
         inkscape:connector-curvature="0" /><path
         d="m 301.237,197.157 c -5.713,15.457 -11.427,30.916 -17.14,46.373 17.601,-1.076 34.63,-1.094 52.072,1.721 5.713,-15.459 11.426,-30.916 17.141,-46.375 -17.444,-2.814 -34.472,-2.795 -52.073,-1.719 z"
         id="path18"
         inkscape:connector-curvature="0" /><path
         d="m 301.237,197.157 c 5.713,-15.459 11.426,-30.918 17.139,-46.375 -18.21,1.471 -36.358,3.557 -54.567,5.027 -5.713,15.457 -11.426,30.918 -17.139,46.375 18.209,-1.468 36.356,-3.557 54.567,-5.027 z"
         id="path20"
         inkscape:connector-curvature="0" /><path
         d="m 396.705,65.534 c -9.065,-1.562 -18.66,-2.32 -29.334,-2.32 -15.253,0 -30.415,1.56 -45.078,3.068 -2.908,0.299 -5.809,0.598 -8.7,0.883 l -3.806,0.377 c -13.428,1.336 -27.313,2.717 -40.715,2.717 -11.688,0.001 -21.813,-1.052 -30.958,-3.217 -23.964,-5.672 -41.767,-20.959 -56.028,-48.111 -2.295,-4.371 -6.95,-6.979 -11.875,-6.661 -4.927,0.319 -9.204,3.509 -10.916,8.14 L 0.778,449.328 c -2.393,6.476 0.917,13.665 7.392,16.058 1.429,0.528 2.892,0.779 4.332,0.779 5.083,0 9.861,-3.124 11.727,-8.171 L 84.23,295.64 c 17.737,18.512 43.149,32.83 59.108,36.605 11.058,2.616 23.07,3.889 36.724,3.889 14.66,0 29.187,-1.445 43.235,-2.845 l 3.731,-0.37 c 2.909,-0.286 5.828,-0.588 8.754,-0.89 14.049,-1.446 28.575,-2.941 42.559,-2.941 9.24,0 17.451,0.641 25.103,1.959 27.344,4.71 47.165,20.396 62.379,49.364 2.295,4.37 6.943,6.972 11.875,6.661 4.927,-0.319 9.204,-3.509 10.916,-8.14 l 89.02,-240.878 c 1.229,-3.322 0.988,-7.01 -0.659,-10.146 -18.866,-35.915 -45.122,-56.319 -80.27,-62.374 z m -22.812,281.108 c -17.228,-22.326 -39.065,-35.558 -66.207,-40.231 -9.068,-1.562 -18.668,-2.321 -29.347,-2.321 -15.266,0 -30.442,1.562 -45.119,3.073 -2.892,0.298 -5.777,0.596 -8.65,0.879 l -3.751,0.372 c -13.441,1.338 -27.34,2.722 -40.759,2.722 -11.691,0 -21.821,-1.053 -30.968,-3.217 -14.564,-3.445 -42.809,-21.25 -54.83,-39.432 L 173.995,52.748 c 15.615,20.353 34.875,33.063 58.36,38.622 11.056,2.617 23.066,3.89 36.717,3.889 14.643,0 29.155,-1.443 43.188,-2.839 l 3.785,-0.376 c 2.926,-0.288 5.861,-0.59 8.806,-0.894 14.034,-1.443 28.548,-2.938 42.519,-2.938 9.236,0 17.444,0.641 25.091,1.957 25.793,4.443 44.894,18.652 59.746,44.564 z"
         id="path22"
         inkscape:connector-curvature="0" /></g></g><g
     id="g28"
     transform="matrix(0.05225646,0,0,0.05507565,1.7517432e-5,-0.6743402)" /><g
     id="g30"
     transform="matrix(0.05225646,0,0,0.05507565,1.7517432e-5,-0.6743402)" /><g
     id="g32"
     transform="matrix(0.05225646,0,0,0.05507565,1.7517432e-5,-0.6743402)" /><g
     id="g34"
     transform="matrix(0.05225646,0,0,0.05507565,1.7517432e-5,-0.6743402)" /><g
     id="g36"
     transform="matrix(0.05225646,0,0,0.05507565,1.7517432e-5,-0.6743402)" /><g
     id="g38"
     transform="matrix(0.05225646,0,0,0.05507565,1.7517432e-5,-0.6743402)" /><g
     id="g40"
     transform="matrix(0.05225646,0,0,0.05507565,1.7517432e-5,-0.6743402)" /><g
     id="g42"
     transform="matrix(0.05225646,0,0,0.05507565,1.7517432e-5,-0.6743402)" /><g
     id="g44"
     transform="matrix(0.05225646,0,0,0.05507565,1.7517432e-5,-0.6743402)" /><g
     id="g46"
     transform="matrix(0.05225646,0,0,0.05507565,1.7517432e-5,-0.6743402)" /><g
     id="g48"
     transform="matrix(0.05225646,0,0,0.05507565,1.7517432e-5,-0.6743402)" /><g
     id="g50"
     transform="matrix(0.05225646,0,0,0.05507565,1.7517432e-5,-0.6743402)" /><g
     id="g52"
     transform="matrix(0.05225646,0,0,0.05507565,1.7517432e-5,-0.6743402)" /><g
     id="g54"
     transform="matrix(0.05225646,0,0,0.05507565,1.7517432e-5,-0.6743402)" /><g
     id="g56"
     transform="matrix(0.05225646,0,0,0.05507565,1.7517432e-5,-0.6743402)" /><path
     style="fill:#e6e6e6;stroke:#000000;stroke-width:0.54252678;stroke-miterlimit:4;stroke-dasharray:none"
     d="m 18.744926,17.45992 c -1.18849,-1.069027 -1.99984,-1.328519 -4.171475,-1.334148 -0.986862,-0.0026 -2.841879,0.05149 -4.12226,0.120116 L 8.1232252,16.370656 7.2214614,15.925507 C 6.7254915,15.680675 6.0196058,15.170177 5.6528266,14.791067 L 4.9859554,14.101775 6.9821742,8.4318055 c 1.0979205,-3.1184834 2.026437,-5.7524186 2.0633702,-5.8531894 0.042526,-0.1160301 0.2581734,0.028219 0.5880512,0.3933546 0.2864951,0.3171158 0.9176654,0.7702856 1.4026004,1.007044 1.343438,0.6559033 2.446615,0.7564568 5.331549,0.4859665 2.981929,-0.2795844 4.217897,-0.2111399 5.203174,0.2881376 0.744592,0.3773128 1.71345,1.3670855 1.842842,1.8826197 0.0425,0.1693567 -0.75139,2.6537712 -1.881193,5.8869925 -1.075104,3.076689 -1.966463,5.604219 -1.980799,5.616733 -0.01434,0.01252 -0.377416,-0.29328 -0.806843,-0.679544 z m 0.782435,-2.143005 c 0.211252,-0.63433 0.348985,-1.244823 0.306072,-1.35665 -0.0971,-0.253049 -1.510029,-1.075435 -1.850823,-1.077263 -0.331381,-0.0018 -0.31538,-0.15934 0.147421,-1.451669 l 0.390867,-1.091463 0.53648,0.186175 c 0.295064,0.102397 0.818096,0.379934 1.162295,0.616749 l 0.625815,0.430572 0.460599,-1.319579 0.460596,-1.3195792 -0.468596,-0.394306 C 21.040359,8.3230335 20.536138,8.0370457 20.177596,7.9043734 19.819056,7.7717011 19.508713,7.6522393 19.487948,7.6389028 c -0.02077,-0.013337 0.124573,-0.4555126 0.322973,-0.9826133 0.198401,-0.5271008 0.360728,-1.0448622 0.360728,-1.1505809 0,-0.2284021 -1.624266,-0.4337752 -2.351565,-0.297333 -0.437645,0.082103 -0.49144,0.1594183 -0.823938,1.1841889 -0.399262,1.2305394 -0.332359,1.1895238 -2.240862,1.3737799 l -0.894744,0.086383 0.4182,-1.1458963 0.418201,-1.1458963 -1.06655,-0.026914 c -0.586602,-0.014803 -1.238199,-0.030952 -1.447993,-0.035886 -0.346189,-0.00814 -0.412559,0.08327 -0.718099,0.9890371 -0.18516,0.5489046 -0.394216,1.0555704 -0.46457,1.1259239 C 10.851047,7.7617774 9.72064,7.2954263 9.1591594,6.8537656 8.952011,6.6908226 8.7383878,6.6078043 8.6844409,6.6692803 8.6304941,6.7307563 8.401657,7.3215509 8.1759139,7.9821573 L 7.7654718,9.1832598 8.1191613,9.4743922 c 0.1945292,0.1601226 0.6928112,0.4479428 1.1072932,0.6395998 0.4144819,0.191658 0.7536035,0.391959 0.7536035,0.445114 0,0.05316 -0.1653795,0.593235 -0.3675099,1.200178 L 9.2450382,12.862816 8.6534865,12.654104 C 8.328133,12.539313 7.8518764,12.285173 7.5951384,12.08935 7.3384006,11.893526 7.0647425,11.733307 6.9870093,11.733307 c -0.077733,0 -0.3141746,0.518996 -0.5254254,1.153325 -0.3262495,0.979638 -0.3550462,1.188425 -0.1912175,1.386396 0.2036333,0.246071 1.7975424,1.048561 2.0830387,1.048754 0.092203,6.2e-5 0.3387502,-0.51368 0.5478832,-1.141649 l 0.3802418,-1.141763 1.2808289,0.0293 c 0.704456,0.01612 1.28149,0.07627 1.282297,0.133681 8.04e-4,0.05741 -0.160018,0.533411 -0.357391,1.057781 -0.426279,1.13252 -0.436991,1.247487 -0.107657,1.155456 0.13816,-0.03861 0.802697,-0.112213 1.476748,-0.163565 l 1.225548,-0.09337 0.416378,-1.226351 0.416379,-1.226352 1.19115,0.06252 c 0.655132,0.03439 1.22614,0.09751 1.268905,0.140274 0.04276,0.04276 -0.08556,0.530515 -0.285179,1.08389 -0.199613,0.553374 -0.362933,1.063336 -0.362933,1.133248 0,0.06991 0.27233,0.212106 0.605177,0.315987 0.332847,0.103881 0.862329,0.377987 1.176626,0.609124 0.314298,0.231137 0.585718,0.42025 0.603156,0.42025 0.01744,0 0.204547,-0.518998 0.415798,-1.153329 z"
     id="path4529"
     inkscape:connector-curvature="0" /><path
     style="fill:#e6e6e6;stroke:#000000;stroke-width:0.54252678;stroke-miterlimit:4;stroke-dasharray:none"
     d="m 10.530944,10.344893 c -0.213842,-0.05666 -0.197591,-0.185274 0.156597,-1.2393548 0.21736,-0.6468743 0.470069,-1.1696757 0.561576,-1.1617808 0.09151,0.00789 0.611628,0.024044 1.155824,0.035886 0.684426,0.014894 1.012469,0.081526 1.064127,0.2161461 0.04107,0.107038 -0.08981,0.6560921 -0.290843,1.2201201 L 12.8127,10.441415 11.791124,10.424764 c -0.561867,-0.0092 -1.128948,-0.0451 -1.26018,-0.07987 z"
     id="path4531"
     inkscape:connector-curvature="0" /><path
     style="fill:#e6e6e6;stroke:#000000;stroke-width:0.54252678;stroke-miterlimit:4;stroke-dasharray:none"
     d=""
     id="path4533"
     inkscape:connector-curvature="0" /><path
     style="fill:#e6e6e6;stroke:#000000;stroke-width:0.54252678;stroke-miterlimit:4;stroke-dasharray:none"
     d="m 12.133211,12.845509 c 0,-0.215532 0.75275,-2.029002 0.905704,-2.181956 0.09876,-0.09876 0.719428,-0.226658 1.379259,-0.284216 0.970414,-0.08465 1.186188,-0.06814 1.129024,0.08637 -0.03887,0.105062 -0.184743,0.537917 -0.324166,0.961899 -0.370063,1.12535 -0.573183,1.271589 -1.930665,1.390004 -0.637536,0.05561 -1.159156,0.06817 -1.159156,0.0279 z"
     id="path4535"
     inkscape:connector-curvature="0" /><path
     style="fill:#e6e6e6;stroke:#000000;stroke-width:0.54252678;stroke-miterlimit:4;stroke-dasharray:none"
     d="m 15.874346,10.04667 c 0.005,-0.059211 0.182587,-0.5921168 0.394745,-1.1842339 L 16.654833,7.7858595 17.981462,7.7446023 19.308091,7.703345 18.93373,8.749407 C 18.727831,9.3247411 18.494358,9.8762123 18.4149,9.9748985 18.257331,10.170598 15.858315,10.238371 15.874346,10.04667 Z"
     id="path4537"
     inkscape:connector-curvature="0" /></svg>